%TF.GenerationSoftware,KiCad,Pcbnew,6.0.10-86aedd382b~118~ubuntu20.04.1*%
%TF.CreationDate,2023-03-12T18:50:47-04:00*%
%TF.ProjectId,coco_serial_rtc,636f636f-5f73-4657-9269-616c5f727463,1.0.0*%
%TF.SameCoordinates,Original*%
%TF.FileFunction,Soldermask,Bot*%
%TF.FilePolarity,Negative*%
%FSLAX46Y46*%
G04 Gerber Fmt 4.6, Leading zero omitted, Abs format (unit mm)*
G04 Created by KiCad (PCBNEW 6.0.10-86aedd382b~118~ubuntu20.04.1) date 2023-03-12 18:50:47*
%MOMM*%
%LPD*%
G01*
G04 APERTURE LIST*
%ADD10C,1.950000*%
%ADD11R,1.950000X1.950000*%
%ADD12C,2.400000*%
%ADD13C,6.000000*%
%ADD14R,2.600000X2.600000*%
%ADD15C,2.600000*%
%ADD16R,1.700000X1.700000*%
%ADD17O,1.700000X1.700000*%
%ADD18C,4.000000*%
%ADD19C,1.000000*%
G04 APERTURE END LIST*
D10*
%TO.C,J4*%
X122575000Y-54250000D03*
X125075000Y-54250000D03*
X132575000Y-54250000D03*
X130075000Y-54250000D03*
X127575000Y-69250000D03*
X135075000Y-64250000D03*
X132575000Y-66750000D03*
X127575000Y-64250000D03*
X122575000Y-66750000D03*
D11*
X120075000Y-64250000D03*
D12*
X135075000Y-59250000D03*
X120075000Y-59250000D03*
%TD*%
D13*
%TO.C,H8*%
X161860000Y-142325000D03*
%TD*%
%TO.C,H7*%
X113860000Y-142325000D03*
%TD*%
%TO.C,H6*%
X161860000Y-54325000D03*
%TD*%
%TO.C,H5*%
X113860000Y-54325000D03*
%TD*%
D14*
%TO.C,J3*%
X145920000Y-118530000D03*
D15*
X150920000Y-118530000D03*
X155920000Y-118530000D03*
X160920000Y-118530000D03*
%TD*%
D14*
%TO.C,J6*%
X157275000Y-108560000D03*
D15*
X157275000Y-103560000D03*
%TD*%
D16*
%TO.C,J1*%
X128500000Y-108060000D03*
D17*
X125960000Y-108060000D03*
X123420000Y-108060000D03*
X120880000Y-108060000D03*
X118340000Y-108060000D03*
%TD*%
D18*
%TO.C,H1*%
X121830000Y-135000000D03*
%TD*%
%TO.C,H3*%
X158710000Y-135000000D03*
%TD*%
D10*
%TO.C,J5*%
X143175000Y-54250000D03*
X145675000Y-54250000D03*
X153175000Y-54250000D03*
X150675000Y-54250000D03*
X153175000Y-64250000D03*
X155675000Y-64250000D03*
X150675000Y-66750000D03*
X153175000Y-66750000D03*
X143175000Y-66750000D03*
X145675000Y-66750000D03*
D11*
X143175000Y-64250000D03*
X140675000Y-64250000D03*
D12*
X155675000Y-59250000D03*
X140675000Y-59250000D03*
%TD*%
D14*
%TO.C,J2*%
X113851000Y-118465000D03*
D15*
X118851000Y-118465000D03*
X123851000Y-118465000D03*
X128851000Y-118465000D03*
X133851000Y-118465000D03*
X138851000Y-118465000D03*
%TD*%
D19*
%TO.C,Y1*%
X146290000Y-99030000D03*
X148190000Y-99030000D03*
%TD*%
D18*
%TO.C,H2*%
X131470000Y-135000000D03*
%TD*%
%TO.C,H4*%
X149160000Y-135000000D03*
%TD*%
M02*
