M48
; DRILL file {KiCad 6.0.10-86aedd382b~118~ubuntu20.04.1} date Sun 12 Mar 2023 06:51:08 PM EDT
; FORMAT={-:-/ absolute / metric / decimal}
; #@! TF.CreationDate,2023-03-12T18:51:08-04:00
; #@! TF.GenerationSoftware,Kicad,Pcbnew,6.0.10-86aedd382b~118~ubuntu20.04.1
; #@! TF.FileFunction,Plated,1,2,PTH
FMAT,2
METRIC
; #@! TA.AperFunction,Plated,PTH,ViaDrill
T1C0.400
; #@! TA.AperFunction,Plated,PTH,ComponentDrill
T2C0.500
; #@! TA.AperFunction,Plated,PTH,ComponentDrill
T3C1.000
; #@! TA.AperFunction,Plated,PTH,ComponentDrill
T4C1.300
; #@! TA.AperFunction,Plated,PTH,ComponentDrill
T5C3.000
%
G90
G05
T1
X118.3Y-71.03
X121.745Y-84.83
X123.12Y-86.22
X129.66Y-94.75
X131.54Y-88.41
X138.15Y-66.02
X138.25Y-64.5
X140.69Y-67.84
X141.77Y-83.73
X145.03Y-93.96
X145.995Y-91.175
X149.5Y-84.23
X149.84Y-75.93
X151.53Y-78.74
X151.94Y-90.3
X154.75Y-84.82
X155.22Y-74.14
X155.59Y-88.23
X155.78Y-83.51
X156.44Y-75.52
X157.17Y-70.2
X157.23Y-95.79
X157.92Y-90.14
X161.7Y-74.05
X162.3Y-68.42
X163.04Y-94.16
X163.62Y-74.54
T2
X146.29Y-99.03
X148.19Y-99.03
T3
X118.34Y-108.06
X120.88Y-108.06
X123.42Y-108.06
X125.96Y-108.06
X128.5Y-108.06
T4
X113.851Y-118.465
X118.851Y-118.465
X120.075Y-64.25
X122.575Y-54.25
X122.575Y-66.75
X123.851Y-118.465
X125.075Y-54.25
X127.575Y-64.25
X127.575Y-69.25
X128.851Y-118.465
X130.075Y-54.25
X132.575Y-54.25
X132.575Y-66.75
X133.851Y-118.465
X135.075Y-64.25
X138.851Y-118.465
X140.675Y-64.25
X143.175Y-54.25
X143.175Y-64.25
X143.175Y-66.75
X145.675Y-54.25
X145.675Y-66.75
X145.92Y-118.53
X150.675Y-54.25
X150.675Y-66.75
X150.92Y-118.53
X153.175Y-54.25
X153.175Y-64.25
X153.175Y-66.75
X155.675Y-64.25
X155.92Y-118.53
X157.275Y-103.56
X157.275Y-108.56
X160.92Y-118.53
T5
X113.86Y-54.325
X113.86Y-142.325
X161.86Y-54.325
X161.86Y-142.325
T0
M30
