%TF.GenerationSoftware,KiCad,Pcbnew,6.0.10-86aedd382b~118~ubuntu20.04.1*%
%TF.CreationDate,2023-03-12T18:50:46-04:00*%
%TF.ProjectId,coco_serial_rtc,636f636f-5f73-4657-9269-616c5f727463,1.0.0*%
%TF.SameCoordinates,Original*%
%TF.FileFunction,Soldermask,Top*%
%TF.FilePolarity,Negative*%
%FSLAX46Y46*%
G04 Gerber Fmt 4.6, Leading zero omitted, Abs format (unit mm)*
G04 Created by KiCad (PCBNEW 6.0.10-86aedd382b~118~ubuntu20.04.1) date 2023-03-12 18:50:46*
%MOMM*%
%LPD*%
G01*
G04 APERTURE LIST*
G04 Aperture macros list*
%AMRoundRect*
0 Rectangle with rounded corners*
0 $1 Rounding radius*
0 $2 $3 $4 $5 $6 $7 $8 $9 X,Y pos of 4 corners*
0 Add a 4 corners polygon primitive as box body*
4,1,4,$2,$3,$4,$5,$6,$7,$8,$9,$2,$3,0*
0 Add four circle primitives for the rounded corners*
1,1,$1+$1,$2,$3*
1,1,$1+$1,$4,$5*
1,1,$1+$1,$6,$7*
1,1,$1+$1,$8,$9*
0 Add four rect primitives between the rounded corners*
20,1,$1+$1,$2,$3,$4,$5,0*
20,1,$1+$1,$4,$5,$6,$7,0*
20,1,$1+$1,$6,$7,$8,$9,0*
20,1,$1+$1,$8,$9,$2,$3,0*%
G04 Aperture macros list end*
%ADD10C,1.950000*%
%ADD11R,1.950000X1.950000*%
%ADD12C,2.400000*%
%ADD13C,6.000000*%
%ADD14R,2.600000X2.600000*%
%ADD15C,2.600000*%
%ADD16RoundRect,0.250001X-0.499999X-0.924999X0.499999X-0.924999X0.499999X0.924999X-0.499999X0.924999X0*%
%ADD17RoundRect,0.250000X-0.337500X-0.475000X0.337500X-0.475000X0.337500X0.475000X-0.337500X0.475000X0*%
%ADD18RoundRect,0.250000X0.475000X-0.337500X0.475000X0.337500X-0.475000X0.337500X-0.475000X-0.337500X0*%
%ADD19R,1.700000X1.700000*%
%ADD20O,1.700000X1.700000*%
%ADD21R,3.510000X2.540000*%
%ADD22RoundRect,0.250000X-0.350000X-0.450000X0.350000X-0.450000X0.350000X0.450000X-0.350000X0.450000X0*%
%ADD23RoundRect,0.250000X0.337500X0.475000X-0.337500X0.475000X-0.337500X-0.475000X0.337500X-0.475000X0*%
%ADD24RoundRect,0.150000X-0.825000X-0.150000X0.825000X-0.150000X0.825000X0.150000X-0.825000X0.150000X0*%
%ADD25RoundRect,0.250000X-0.475000X0.337500X-0.475000X-0.337500X0.475000X-0.337500X0.475000X0.337500X0*%
%ADD26C,4.000000*%
%ADD27RoundRect,0.250000X0.350000X0.450000X-0.350000X0.450000X-0.350000X-0.450000X0.350000X-0.450000X0*%
%ADD28R,0.450000X1.750000*%
%ADD29R,0.450000X1.050000*%
%ADD30R,0.895000X1.470000*%
%ADD31RoundRect,0.250000X-0.450000X0.325000X-0.450000X-0.325000X0.450000X-0.325000X0.450000X0.325000X0*%
%ADD32C,1.000000*%
%ADD33RoundRect,0.250000X0.450000X-0.350000X0.450000X0.350000X-0.450000X0.350000X-0.450000X-0.350000X0*%
%ADD34RoundRect,0.250000X-0.450000X0.350000X-0.450000X-0.350000X0.450000X-0.350000X0.450000X0.350000X0*%
G04 APERTURE END LIST*
D10*
%TO.C,J4*%
X122575000Y-54250000D03*
X125075000Y-54250000D03*
X132575000Y-54250000D03*
X130075000Y-54250000D03*
X127575000Y-69250000D03*
X135075000Y-64250000D03*
X132575000Y-66750000D03*
X127575000Y-64250000D03*
X122575000Y-66750000D03*
D11*
X120075000Y-64250000D03*
D12*
X135075000Y-59250000D03*
X120075000Y-59250000D03*
%TD*%
D13*
%TO.C,H8*%
X161860000Y-142325000D03*
%TD*%
%TO.C,H7*%
X113860000Y-142325000D03*
%TD*%
%TO.C,H6*%
X161860000Y-54325000D03*
%TD*%
%TO.C,H5*%
X113860000Y-54325000D03*
%TD*%
D14*
%TO.C,J3*%
X145920000Y-118530000D03*
D15*
X150920000Y-118530000D03*
X155920000Y-118530000D03*
X160920000Y-118530000D03*
%TD*%
D16*
%TO.C,C12*%
X133930000Y-110660000D03*
X137180000Y-110660000D03*
%TD*%
D17*
%TO.C,C10*%
X146902500Y-82190000D03*
X148977500Y-82190000D03*
%TD*%
D14*
%TO.C,J6*%
X157275000Y-108560000D03*
D15*
X157275000Y-103560000D03*
%TD*%
D18*
%TO.C,C2*%
X137140000Y-104497500D03*
X137140000Y-102422500D03*
%TD*%
D19*
%TO.C,J1*%
X128500000Y-108060000D03*
D20*
X125960000Y-108060000D03*
X123420000Y-108060000D03*
X120880000Y-108060000D03*
X118340000Y-108060000D03*
%TD*%
D21*
%TO.C,BT1*%
X123380000Y-102590000D03*
X123380000Y-73230000D03*
%TD*%
D22*
%TO.C,R2*%
X133020000Y-97480000D03*
X135020000Y-97480000D03*
%TD*%
D23*
%TO.C,C1*%
X145017500Y-85130000D03*
X142942500Y-85130000D03*
%TD*%
D24*
%TO.C,U3*%
X158115000Y-77325000D03*
X158115000Y-78595000D03*
X158115000Y-79865000D03*
X158115000Y-81135000D03*
X158115000Y-82405000D03*
X158115000Y-83675000D03*
X158115000Y-84945000D03*
X158115000Y-86215000D03*
X163065000Y-86215000D03*
X163065000Y-84945000D03*
X163065000Y-83675000D03*
X163065000Y-82405000D03*
X163065000Y-81135000D03*
X163065000Y-79865000D03*
X163065000Y-78595000D03*
X163065000Y-77325000D03*
%TD*%
D25*
%TO.C,C9*%
X137990000Y-79012500D03*
X137990000Y-81087500D03*
%TD*%
D26*
%TO.C,H1*%
X121830000Y-135000000D03*
%TD*%
D27*
%TO.C,R4*%
X151620000Y-73030000D03*
X149620000Y-73030000D03*
%TD*%
D28*
%TO.C,U1*%
X140145000Y-96810000D03*
X140795000Y-96810000D03*
X141445000Y-96810000D03*
X142095000Y-96810000D03*
X142745000Y-96810000D03*
X143395000Y-96810000D03*
X144045000Y-96810000D03*
X144695000Y-96810000D03*
X145345000Y-96810000D03*
X145995000Y-96810000D03*
X146645000Y-96810000D03*
X147295000Y-96810000D03*
X147945000Y-96810000D03*
X148595000Y-96810000D03*
X148595000Y-89610000D03*
X147945000Y-89610000D03*
X147295000Y-89610000D03*
X146645000Y-89610000D03*
X145995000Y-89610000D03*
X145345000Y-89610000D03*
X144695000Y-89610000D03*
X144045000Y-89610000D03*
X143395000Y-89610000D03*
X142745000Y-89610000D03*
X142095000Y-89610000D03*
X141445000Y-89610000D03*
X140795000Y-89610000D03*
X140145000Y-89610000D03*
%TD*%
D29*
%TO.C,U2*%
X141635000Y-78435000D03*
X142285000Y-78435000D03*
X142935000Y-78435000D03*
X143585000Y-78435000D03*
X144235000Y-78435000D03*
X144885000Y-78435000D03*
X145535000Y-78435000D03*
X146185000Y-78435000D03*
X146185000Y-72885000D03*
X145535000Y-72885000D03*
X144885000Y-72885000D03*
X144235000Y-72885000D03*
X143585000Y-72885000D03*
X142935000Y-72885000D03*
X142285000Y-72885000D03*
X141635000Y-72885000D03*
D30*
X142567500Y-76395000D03*
X144357500Y-76395000D03*
X143462500Y-76395000D03*
X144357500Y-74925000D03*
X145252500Y-74925000D03*
X142567500Y-74925000D03*
X143462500Y-74925000D03*
X145252500Y-76395000D03*
%TD*%
D17*
%TO.C,C8*%
X142942500Y-82190000D03*
X145017500Y-82190000D03*
%TD*%
%TO.C,C3*%
X135102500Y-100110000D03*
X137177500Y-100110000D03*
%TD*%
D26*
%TO.C,H3*%
X158710000Y-135000000D03*
%TD*%
D31*
%TO.C,D1*%
X132135000Y-75235000D03*
X132135000Y-77285000D03*
%TD*%
D10*
%TO.C,J5*%
X143175000Y-54250000D03*
X145675000Y-54250000D03*
X153175000Y-54250000D03*
X150675000Y-54250000D03*
X153175000Y-64250000D03*
X155675000Y-64250000D03*
X150675000Y-66750000D03*
X153175000Y-66750000D03*
X143175000Y-66750000D03*
X145675000Y-66750000D03*
D11*
X143175000Y-64250000D03*
X140675000Y-64250000D03*
D12*
X155675000Y-59250000D03*
X140675000Y-59250000D03*
%TD*%
D14*
%TO.C,J2*%
X113851000Y-118465000D03*
D15*
X118851000Y-118465000D03*
X123851000Y-118465000D03*
X128851000Y-118465000D03*
X133851000Y-118465000D03*
X138851000Y-118465000D03*
%TD*%
D32*
%TO.C,Y1*%
X146290000Y-99030000D03*
X148190000Y-99030000D03*
%TD*%
D23*
%TO.C,C7*%
X141737500Y-70180000D03*
X139662500Y-70180000D03*
%TD*%
D33*
%TO.C,R1*%
X132090000Y-73290000D03*
X132090000Y-71290000D03*
%TD*%
D34*
%TO.C,R3*%
X132610000Y-102430000D03*
X132610000Y-104430000D03*
%TD*%
D26*
%TO.C,H2*%
X131470000Y-135000000D03*
%TD*%
%TO.C,H4*%
X149160000Y-135000000D03*
%TD*%
D18*
%TO.C,C4*%
X144140000Y-101147500D03*
X144140000Y-99072500D03*
%TD*%
%TO.C,C11*%
X161140000Y-71977500D03*
X161140000Y-69902500D03*
%TD*%
%TO.C,C6*%
X137990000Y-76537500D03*
X137990000Y-74462500D03*
%TD*%
%TO.C,C5*%
X150340000Y-101147500D03*
X150340000Y-99072500D03*
%TD*%
M02*
